<svg xmlns="http://www.w3.org/2000/svg" viewBox="0 0 16 16" shape-rendering="crispEdges">
  <rect width="16" height="16" fill="#0b1026"/>
  <g fill="#39ff88">
    <rect x="4" y="1" width="1" height="1"/><rect x="11" y="1" width="1" height="1"/>
    <rect x="5" y="2" width="1" height="1"/><rect x="10" y="2" width="1" height="1"/>
    <rect x="6" y="3" width="4" height="2"/>
    <rect x="4" y="5" width="8" height="7"/>
    <rect x="3" y="6" width="1" height="5"/><rect x="12" y="6" width="1" height="5"/>
    <rect x="5" y="12" width="6" height="1"/>
    <rect x="1" y="6" width="2" height="1"/><rect x="13" y="6" width="2" height="1"/>
    <rect x="1" y="9" width="2" height="1"/><rect x="13" y="9" width="2" height="1"/>
  </g>
  <g fill="#0b1026">
    <rect x="6" y="4" width="1" height="1"/><rect x="9" y="4" width="1" height="1"/>
    <rect x="6" y="7" width="1" height="1"/><rect x="9" y="7" width="1" height="1"/>
    <rect x="7" y="9" width="2" height="1"/>
  </g>
</svg>
